<svg width="20" height="28" viewBox="0 0 20 28" fill="none" xmlns="http://www.w3.org/2000/svg">
<path fill-rule="evenodd" clip-rule="evenodd" d="M3.90625 3.6875C3.64737 3.6875 3.4375 3.89737 3.4375 4.15625V22.739L9.10604 18.0708C9.6253 17.6431 10.3747 17.6431 10.894 18.0708L16.5625 22.739V4.15625C16.5625 3.89737 16.3527 3.6875 16.0938 3.6875H3.90625ZM0.625 4.15625C0.625 2.34406 2.09406 0.875 3.90625 0.875H16.0938C17.9059 0.875 19.375 2.34406 19.375 4.15625V25.7187C19.375 26.2629 19.0611 26.7582 18.5689 26.9906C18.0767 27.2227 17.4949 27.1501 17.0748 26.8042L10 20.978L2.92521 26.8042C2.50516 27.1501 1.92321 27.2227 1.43108 26.9906C0.93895 26.7582 0.625 26.2629 0.625 25.7187V4.15625Z" fill="#737791"/>
</svg>
