<svg width="30" height="31" viewBox="0 0 30 31" fill="none" xmlns="http://www.w3.org/2000/svg">
<path d="M4.97105 3.58719C5.89262 3.58719 6.63965 2.84014 6.63965 1.9186C6.63965 0.997055 5.89262 0.25 4.97105 0.25C4.35342 0.25 3.81421 0.585555 3.52571 1.0843H3.30245C1.92015 1.0843 0.799561 2.20489 0.799561 3.58719V11.0959H2.46816V3.58719C2.46816 3.12643 2.84169 2.75289 3.30245 2.75289H3.52571C3.81421 3.25164 4.35342 3.58719 4.97105 3.58719Z" fill="#6B779A"/>
<path fill-rule="evenodd" clip-rule="evenodd" d="M3.43612 11.0959H2.46816H0.799567C0.3388 11.0959 -0.0386442 11.4702 0.00317079 11.9291C0.197137 14.0575 1.12968 16.0616 2.65326 17.5852C3.7705 18.7024 5.14609 19.5018 6.63965 19.9253V21.9417C6.63965 23.0317 7.33629 23.9588 8.30858 24.3023C8.34412 27.6124 11.0385 30.2847 14.3569 30.2847C17.6975 30.2847 20.4056 27.5767 20.4056 24.2361V20.8989C20.4056 19.171 21.8063 17.7703 23.5342 17.7703C25.2621 17.7703 26.6628 19.171 26.6628 20.8989V22.9185C25.6907 23.262 24.9942 24.1892 24.9942 25.2789C24.9942 26.6613 26.1148 27.7818 27.4971 27.7818C28.8795 27.7818 30 26.6613 30 25.2789C30 24.1892 29.3035 23.262 28.3314 22.9185V20.8989C28.3314 18.2495 26.1836 16.1017 23.5342 16.1017C20.8848 16.1017 18.737 18.2495 18.737 20.8989V24.2361C18.737 26.6551 16.776 28.6161 14.3569 28.6161C11.9599 28.6161 10.0126 26.6907 9.97735 24.3021C10.9492 23.9583 11.6454 23.0313 11.6454 21.9417V19.9253C13.139 19.5018 14.5147 18.7024 15.6319 17.5852C17.1555 16.0616 18.088 14.0575 18.2819 11.9291C18.3238 11.4702 17.9463 11.0959 17.4855 11.0959V3.58719C17.4855 2.20489 16.365 1.0843 14.9826 1.0843H14.7594C14.4709 0.585555 13.9317 0.25 13.314 0.25C12.3925 0.25 11.6454 0.997055 11.6454 1.9186C11.6454 2.84014 12.3925 3.58719 13.314 3.58719C13.9317 3.58719 14.4709 3.25164 14.7594 2.75289H14.9826C15.4434 2.75289 15.8169 3.12643 15.8169 3.58719V11.0959H14.8491C14.3883 11.0959 14.022 11.4721 13.9435 11.9262C13.7733 12.9101 13.3034 13.8254 12.5877 14.541C11.6741 15.4547 10.4348 15.9681 9.14255 15.9681C7.85039 15.9681 6.61112 15.4547 5.6974 14.541C4.98182 13.8254 4.51178 12.9101 4.34158 11.9262C4.26307 11.4721 3.89681 11.0959 3.43612 11.0959ZM15.4669 12.7645H16.4635C16.1517 14.1324 15.4599 15.3974 14.452 16.4053C13.0439 17.8135 11.134 18.6046 9.14255 18.6046C7.15116 18.6046 5.24129 17.8135 3.83316 16.4053C2.82522 15.3974 2.13342 14.1324 1.8216 12.7645H2.81818C3.11077 13.8733 3.69258 14.8959 4.51753 15.7209C5.7442 16.9476 7.40787 17.6367 9.14255 17.6367C10.8773 17.6367 12.541 16.9476 13.7676 15.7209C14.5926 14.8959 15.1744 13.8733 15.4669 12.7645ZM27.4971 24.4446C27.9579 24.4446 28.3314 24.8182 28.3314 25.2789C28.3314 25.7397 27.9579 26.1132 27.4971 26.1132C27.0363 26.1132 26.6628 25.7397 26.6628 25.2789C26.6628 24.8182 27.0363 24.4446 27.4971 24.4446ZM9.97684 20.2732V21.9417C9.97684 22.4025 9.60333 22.776 9.14255 22.776C8.68176 22.776 8.30825 22.4025 8.30825 21.9417V20.2732H9.97684Z" fill="#6B779A"/>
</svg>
