<svg width="30" height="30" viewBox="0 0 30 30" fill="none" xmlns="http://www.w3.org/2000/svg">
<path fill-rule="evenodd" clip-rule="evenodd" d="M3.08051 5.89296L0.800207 3.61266C0.504911 3.31736 0 3.5265 0 3.94412V10.7812C0 11.0401 0.209867 11.25 0.46875 11.25H7.30584C7.72344 11.25 7.93258 10.745 7.63729 10.4498L5.09062 7.90309C7.30328 4.81911 10.9184 2.8125 15.0001 2.8125C21.7311 2.8125 27.1877 8.26903 27.1877 15C27.1877 21.7311 21.7311 27.1875 15.0001 27.1875C8.69574 27.1875 3.50784 22.3995 2.87711 16.2625C2.79771 15.4899 2.10705 14.928 1.33446 15.0074C0.561879 15.0868 -5.41401e-05 15.7774 0.0793472 16.55C0.855977 24.1067 7.23892 30 15.0001 30C23.2843 30 30.0002 23.2843 30.0002 15C30.0002 6.71572 23.2843 0 15.0001 0C10.1395 0 5.82068 2.31189 3.08051 5.89296ZM14.5312 7.5C15.3079 7.5 15.9375 8.12961 15.9375 8.90625V14.5167L19.7409 16.0381C20.4621 16.3265 20.8129 17.1449 20.5245 17.866C20.2359 18.5871 19.4175 18.9379 18.6965 18.6494L14.009 16.7744C13.4751 16.5609 13.125 16.0438 13.125 15.4688V8.90625C13.125 8.12961 13.7546 7.5 14.5312 7.5Z" fill="#737791"/>
</svg>
