<svg width="24" height="24" viewBox="0 0 24 24" fill="none" xmlns="http://www.w3.org/2000/svg">
<path fill-rule="evenodd" clip-rule="evenodd" d="M12.234 2.33207C12.1676 2.279 12.085 2.25009 12 2.25009C11.915 2.25009 11.8324 2.279 11.766 2.33207L3.891 8.63207C3.84689 8.66729 3.81129 8.71203 3.78687 8.76293C3.76247 8.81384 3.74985 8.86961 3.75 8.92607V19.4546C3.75 19.6616 3.918 19.8296 4.125 19.8296H8.25V11.9546C8.25 11.6562 8.36853 11.37 8.5795 11.1591C8.79048 10.9481 9.07663 10.8296 9.375 10.8296H14.625C14.9234 10.8296 15.2095 10.9481 15.4205 11.1591C15.6315 11.37 15.75 11.6562 15.75 11.9546V19.8296H19.875C19.9744 19.8296 20.0698 19.7901 20.1402 19.7198C20.2106 19.6494 20.25 19.554 20.25 19.4546V8.92457C20.2498 8.86836 20.2372 8.81289 20.2128 8.76225C20.1883 8.71163 20.153 8.66714 20.109 8.63207L12.234 2.33207ZM10.359 0.575559C10.8245 0.202989 11.403 0 11.9992 0C12.5955 0 13.174 0.202989 13.6395 0.575559L21.5145 6.87557C22.137 7.37355 22.5 8.12807 22.5 8.92607V19.4546C22.5 20.1507 22.2234 20.8184 21.7311 21.3107C21.2388 21.803 20.5711 22.0796 19.875 22.0796H14.625C14.3266 22.0796 14.0405 21.9611 13.8295 21.75C13.6185 21.5391 13.5 21.2529 13.5 20.9546V13.0796H10.5V20.9546C10.5 21.2529 10.3815 21.5391 10.1705 21.75C9.95952 21.9611 9.67336 22.0796 9.375 22.0796H4.125C3.4288 22.0796 2.76112 21.803 2.26884 21.3107C1.77656 20.8184 1.5 20.1507 1.5 19.4546V8.92457C1.5 8.12807 1.863 7.37355 2.4855 6.87557L10.359 0.575559Z" fill="#737791"/>
</svg>
