<svg width="56" height="56" viewBox="0 0 56 56" fill="none" xmlns="http://www.w3.org/2000/svg">
<rect width="56" height="56" rx="8" fill="#5D5FEF"/>
<path d="M29.9823 48H26.0122C22.7024 48 20.02 45.3173 20.02 42.007V37.9459C20.02 36.8607 19.1405 35.9784 18.0527 35.9784H13.9922C10.6824 35.9784 8 33.2956 8 29.9853V26.0147C8 22.7044 10.6824 20.0216 13.9922 20.0216H16.3211C17.176 20.0216 17.8692 20.7149 17.8692 21.5699C17.8692 22.4249 17.176 23.1182 16.3211 23.1182H13.9922C12.3921 23.1182 11.0934 24.4171 11.0934 26.0174V29.9881C11.0934 31.5884 12.3921 32.8873 13.9922 32.8873H18.0527C20.8475 32.8873 23.1161 35.1535 23.1161 37.9514V42.0125C23.1161 43.6128 24.4148 44.9117 26.0149 44.9117H29.9851C31.5852 44.9117 32.8839 43.6128 32.8839 42.0125V39.0091C32.8839 36.4743 31.8975 34.0903 30.1056 32.2981L23.7107 25.8996C21.3352 23.521 20.0255 20.3614 20.0255 16.9991V13.993C20.0255 10.6827 22.7079 8 26.0177 8H29.9878C33.2976 8 35.98 10.6827 35.98 13.993V18.0541C35.98 19.1393 36.8595 20.0216 37.9473 20.0216H42.0078C45.3176 20.0216 48 22.7044 48 26.0147V29.9853C48 33.2956 45.3176 35.9784 42.0078 35.9784H39.6816C38.8268 35.9784 38.1336 35.2851 38.1336 34.4301C38.1336 33.5751 38.8268 32.8818 39.6816 32.8818H42.0078C43.6079 32.8818 44.9066 31.5829 44.9066 29.9826V26.0119C44.9066 24.4116 43.6079 23.1127 42.0078 23.1127H37.9418C35.1471 23.1127 32.8812 20.8465 32.8812 18.0514V13.993C32.8812 12.3927 31.5824 11.0938 29.9823 11.0938H26.0122C24.4121 11.0938 23.1134 12.3899 23.1134 13.993V16.9964C23.1134 19.5311 24.0997 21.9152 25.8916 23.7073L32.2866 30.1032C34.6648 32.479 35.9718 35.6413 35.9718 39.0036V42.007C35.9745 45.3145 33.2921 48 29.9823 48Z" fill="white"/>
</svg>
