<svg width="22" height="22" viewBox="0 0 22 22" fill="none" xmlns="http://www.w3.org/2000/svg">
<path fill-rule="evenodd" clip-rule="evenodd" d="M10.7812 0C11.1542 0 11.5119 0.148163 11.7756 0.411881C12.0393 0.6756 12.1875 1.03329 12.1875 1.40625V9.375H20.1562C20.5292 9.375 20.8869 9.52316 21.1506 9.78688C21.4144 10.0506 21.5625 10.4083 21.5625 10.7812C21.5625 11.1542 21.4144 11.5119 21.1506 11.7756C20.8869 12.0393 20.5292 12.1875 20.1562 12.1875H12.1875V20.1562C12.1875 20.5292 12.0393 20.8869 11.7756 21.1506C11.5119 21.4144 11.1542 21.5625 10.7812 21.5625C10.4083 21.5625 10.0506 21.4144 9.78688 21.1506C9.52316 20.8869 9.375 20.5292 9.375 20.1562V12.1875H1.40625C1.03329 12.1875 0.6756 12.0393 0.411881 11.7756C0.148163 11.5119 0 11.1542 0 10.7812C0 10.4083 0.148163 10.0506 0.411881 9.78688C0.6756 9.52316 1.03329 9.375 1.40625 9.375H9.375V1.40625C9.375 1.03329 9.52316 0.6756 9.78688 0.411881C10.0506 0.148163 10.4083 0 10.7812 0Z" fill="#737791"/>
</svg>
