<svg width="60" height="60" viewBox="0 0 60 60" fill="none" xmlns="http://www.w3.org/2000/svg">
<path fill-rule="evenodd" clip-rule="evenodd" d="M17.5 40H42.5C49.4036 40 55 45.5964 55 52.5C55 53.8807 53.8807 55 52.5 55C51.2179 55 50.1612 54.0349 50.0168 52.7916L49.9873 52.0593C49.7676 48.2681 46.7319 45.2324 42.9407 45.0127L42.5 45H17.5C13.3579 45 10 48.3579 10 52.5C10 53.8807 8.88071 55 7.5 55C6.11929 55 5 53.8807 5 52.5C5 45.7781 10.3058 40.2955 16.9578 40.0115L17.5 40ZM30 5C31.0155 5 32.0195 5.10128 33.0009 5.30074C34.3539 5.57573 35.2279 6.89553 34.9529 8.24857C34.6779 9.60162 33.3581 10.4756 32.005 10.2006C31.351 10.0676 30.6806 10 30 10C24.4772 10 20 14.4772 20 20C20 25.5228 24.4772 30 30 30C33.187 30 36.1204 28.502 38.0002 26.001C38.8298 24.8972 40.397 24.675 41.5007 25.5045C42.6044 26.3341 42.8267 27.9013 41.9971 29.005C39.1827 32.7496 34.776 35 30 35C21.7157 35 15 28.2843 15 20C15 11.7157 21.7157 5 30 5Z" fill="#737791"/>
</svg>
