<svg width="30" height="30" viewBox="0 0 30 30" fill="none" xmlns="http://www.w3.org/2000/svg">
<path fill-rule="evenodd" clip-rule="evenodd" d="M21.25 2.5C21.9404 2.5 22.5 3.05964 22.5 3.75V5H23.75C25.8211 5 27.5 6.67893 27.5 8.75V23.75C27.5 25.8211 25.8211 27.5 23.75 27.5H6.25C4.17893 27.5 2.5 25.8211 2.5 23.75V8.75C2.5 6.67893 4.17893 5 6.25 5H7.5V3.75C7.5 3.05964 8.05964 2.5 8.75 2.5C9.44036 2.5 10 3.05964 10 3.75V5H20V3.75C20 3.05964 20.5596 2.5 21.25 2.5ZM5 15V23.75C5 24.4404 5.55964 25 6.25 25H23.75C24.4404 25 25 24.4404 25 23.75V15H5ZM5 12.5H25V8.75C25 8.05964 24.4404 7.5 23.75 7.5H22.5V8.75C22.5 9.44036 21.9404 10 21.25 10C20.5596 10 20 9.44036 20 8.75V7.5H10V8.75C10 9.44036 9.44036 10 8.75 10C8.05964 10 7.5 9.44036 7.5 8.75V7.5H6.25C5.55964 7.5 5 8.05964 5 8.75V12.5Z" fill="#737791"/>
</svg>
