<svg width="26" height="28" viewBox="0 0 26 28" fill="none" xmlns="http://www.w3.org/2000/svg">
<path d="M13 8.66663C14.4145 8.66663 15.7711 9.22853 16.7713 10.2287C17.7714 11.2289 18.3334 12.5855 18.3334 14C18.3334 15.4144 17.7714 16.771 16.7713 17.7712C15.7711 18.7714 14.4145 19.3333 13 19.3333C11.5855 19.3333 10.229 18.7714 9.22878 17.7712C8.22859 16.771 7.66669 15.4144 7.66669 14C7.66669 12.5855 8.22859 11.2289 9.22878 10.2287C10.229 9.22853 11.5855 8.66663 13 8.66663ZM13 11.3333C12.2928 11.3333 11.6145 11.6142 11.1144 12.1143C10.6143 12.6144 10.3334 13.2927 10.3334 14C10.3334 14.7072 10.6143 15.3855 11.1144 15.8856C11.6145 16.3857 12.2928 16.6666 13 16.6666C13.7073 16.6666 14.3855 16.3857 14.8856 15.8856C15.3857 15.3855 15.6667 14.7072 15.6667 14C15.6667 13.2927 15.3857 12.6144 14.8856 12.1143C14.3855 11.6142 13.7073 11.3333 13 11.3333ZM10.3334 27.3333C10 27.3333 9.72002 27.0933 9.66669 26.7733L9.17335 23.24C8.33335 22.9066 7.61335 22.4533 6.92002 21.92L3.60002 23.2666C3.30669 23.3733 2.94669 23.2666 2.78669 22.9733L0.120019 18.36C0.0384136 18.2226 0.00964452 18.0602 0.0390923 17.9031C0.06854 17.7461 0.154188 17.6051 0.28002 17.5066L3.09335 15.2933L3.00002 14L3.09335 12.6666L0.28002 10.4933C0.154188 10.3948 0.06854 10.2539 0.0390923 10.0968C0.00964452 9.93974 0.0384136 9.77734 0.120019 9.63996L2.78669 5.02663C2.94669 4.73329 3.30669 4.61329 3.60002 4.73329L6.92002 6.06663C7.61335 5.54663 8.33335 5.09329 9.17335 4.75996L9.66669 1.22663C9.72002 0.906626 10 0.666626 10.3334 0.666626H15.6667C16 0.666626 16.28 0.906626 16.3334 1.22663L16.8267 4.75996C17.6667 5.09329 18.3867 5.54663 19.08 6.06663L22.4 4.73329C22.6934 4.61329 23.0534 4.73329 23.2134 5.02663L25.88 9.63996C26.0534 9.93329 25.9734 10.2933 25.72 10.4933L22.9067 12.6666L23 14L22.9067 15.3333L25.72 17.5066C25.9734 17.7066 26.0534 18.0666 25.88 18.36L23.2134 22.9733C23.0534 23.2666 22.6934 23.3866 22.4 23.2666L19.08 21.9333C18.3867 22.4533 17.6667 22.9066 16.8267 23.24L16.3334 26.7733C16.28 27.0933 16 27.3333 15.6667 27.3333H10.3334ZM12 3.33329L11.5067 6.81329C9.90668 7.14663 8.49335 7.99996 7.46669 9.18663L4.25335 7.79996L3.25335 9.53329L6.06669 11.6C5.53335 13.1555 5.53335 14.8444 6.06669 16.4L3.24002 18.48L4.24002 20.2133L7.48002 18.8266C8.50669 20 9.90668 20.8533 11.4934 21.1733L11.9867 24.6666H14.0134L14.5067 21.1866C16.0934 20.8533 17.4934 20 18.52 18.8266L21.76 20.2133L22.76 18.48L19.9334 16.4133C20.4667 14.8533 20.4667 13.16 19.9334 11.6L22.7467 9.53329L21.7467 7.79996L18.5333 9.18663C17.4856 7.97372 16.0645 7.14353 14.4934 6.82663L14 3.33329H12Z" fill="#737791"/>
</svg>
