<svg width="28" height="27" viewBox="0 0 28 27" fill="none" xmlns="http://www.w3.org/2000/svg">
<path fill-rule="evenodd" clip-rule="evenodd" d="M25.9888 6.791L25.3145 5.6209C24.744 4.63082 23.4798 4.28926 22.4884 4.85736V4.85736C22.0165 5.13537 21.4533 5.21425 20.9232 5.0766C20.393 4.93894 19.9394 4.59606 19.6623 4.12357C19.4841 3.82325 19.3883 3.48118 19.3846 3.13196V3.13196C19.4007 2.57207 19.1895 2.02952 18.7991 1.62789C18.4087 1.22627 17.8723 0.999769 17.3122 1H15.9537C15.4049 0.999994 14.8788 1.21866 14.4917 1.60761C14.1046 1.99656 13.8885 2.52373 13.8911 3.07246V3.07246C13.8749 4.20542 12.9517 5.1153 11.8187 5.11518C11.4695 5.11155 11.1274 5.01577 10.8271 4.83753V4.83753C9.83562 4.26943 8.57143 4.61099 8.00097 5.60107L7.2771 6.791C6.70733 7.77984 7.04424 9.04324 8.03072 9.61709V9.61709C8.67195 9.98729 9.06696 10.6715 9.06696 11.4119C9.06696 12.1523 8.67195 12.8365 8.03072 13.2067V13.2067C7.04549 13.7767 6.70822 15.037 7.2771 16.0229V16.0229L7.96131 17.2029C8.22859 17.6852 8.67704 18.0411 9.20743 18.1918C9.73782 18.3426 10.3064 18.2757 10.7874 18.0061V18.0061C11.2602 17.7302 11.8237 17.6546 12.3525 17.7961C12.8813 17.9376 13.3317 18.2845 13.6036 18.7597C13.7818 19.0601 13.8776 19.4021 13.8812 19.7513V19.7513C13.8812 20.8959 14.8091 21.8238 15.9537 21.8238H17.3122C18.4529 21.8238 19.3792 20.902 19.3846 19.7613V19.7613C19.382 19.2108 19.5995 18.6821 19.9887 18.2929C20.378 17.9036 20.9067 17.6861 21.4571 17.6888C21.8055 17.6981 22.1462 17.7935 22.4487 17.9664V17.9664C23.4376 18.5362 24.701 18.1993 25.2748 17.2128V17.2128L25.9888 16.0229C26.2651 15.5485 26.341 14.9836 26.1995 14.4532C26.0581 13.9227 25.711 13.4706 25.2351 13.1968V13.1968C24.7593 12.923 24.4122 12.4709 24.2708 11.9404C24.1293 11.41 24.2052 10.8451 24.4815 10.3707C24.6612 10.0569 24.9214 9.7968 25.2351 9.61709V9.61709C26.2157 9.04355 26.5518 7.78754 25.9888 6.80092V6.80092V6.791Z" stroke="#737791" stroke-width="2" stroke-linecap="round" stroke-linejoin="round"/>
<circle cx="16.6379" cy="11.412" r="2.85584" stroke="#737791" stroke-width="2" stroke-linecap="round" stroke-linejoin="round"/>
</svg>
